<?xml version="1.0" encoding="UTF-8"?>
<svg width="984px" height="260px" viewBox="0 0 984 260" version="1.1" xmlns="http://www.w3.org/2000/svg" xmlns:xlink="http://www.w3.org/1999/xlink">
    <title>logo-light</title>
    <g id="logo-light" stroke="none" stroke-width="1" fill="none" fill-rule="evenodd">
        <path d="M282,44 C332.132731,44 373.099168,89.0906572 375.852539,145.899086 C375.852539,145.899086 375.852539,145.899086 375.852539,145.899086 C376.161168,152.266812 371.249299,157.679068 364.881572,157.987697 C364.695394,157.99672 364.509025,158.001233 364.322629,158.001221 L255,158.000073 C251.134035,157.999959 248.000073,154.865965 248,151 L248,141 C247.999997,137.134007 251.134004,134 254.999997,134 C254.999998,134 254.999999,134 255,134.000003 L350.389111,134.000046 L350.389111,134.000046 C343.522423,96.2578388 315.5112,68 282,68 C243.340068,68 212,105.608081 212,152 C212,198.391919 243.340068,236 282,236 C291.732451,236 301.001,233.616564 309.422419,229.30957 C309.716458,229.159188 310.03384,228.990476 310.374565,228.803433 C313.763929,226.943833 318.018898,228.184494 319.878066,231.574095 C319.942571,231.691699 320.003682,231.811132 320.060339,231.932715 L324.336906,240.914216 C325.933581,244.268852 324.630798,248.286298 321.368265,250.063611 C320.251178,250.673596 319.287065,251.174957 318.475927,251.567693 C307.260149,256.998146 294.935192,260 282,260 C230.085234,260 188,211.646753 188,152 C188,92.353247 230.085234,44 282,44 Z" id="Path" fill="#000000"></path>
        <path d="M686,44 C736.132731,44 777.099168,89.0906572 779.852539,145.899086 C779.852539,145.899086 779.852539,145.899086 779.852539,145.899086 C780.161168,152.266812 775.249299,157.679068 768.881572,157.987697 C768.695394,157.99672 768.509025,158.001233 768.322629,158.001221 L659,158.000073 C655.134035,157.999959 652.000073,154.865965 652,151 L652,141 C651.999997,137.134007 655.134004,134 658.999997,134 C658.999998,134 658.999999,134 659,134.000003 L754.389111,134.000046 L754.389111,134.000046 C747.522423,96.2578388 719.5112,68 686,68 C647.340068,68 616,105.608081 616,152 C616,198.391919 647.340068,236 686,236 C695.732451,236 705.001,233.616564 713.422419,229.30957 C713.716458,229.159188 714.03384,228.990476 714.374565,228.803433 C717.763929,226.943833 722.018898,228.184494 723.878066,231.574095 C723.942571,231.691699 724.003682,231.811132 724.060339,231.932715 L728.336906,240.914216 C729.933581,244.268852 728.630798,248.286298 725.368265,250.063611 C724.251178,250.673596 723.287065,251.174957 722.475927,251.567693 C711.260149,256.998146 698.935192,260 686,260 C634.085234,260 592,211.646753 592,152 C592,92.353247 634.085234,44 686,44 Z" id="Path-Copy" fill="#000000"></path>
        <path d="M415.33652,60 L424.948,60 C428.813993,60 431.948,63.1340068 431.948,67 L431.948,138.689 L431.948,138.689 L432.003483,138.68963 L431.999,196.003967 L432.003483,196.661473 C432.233084,218.447771 443.784191,236 458,236 C460.327619,236 462.583799,235.529442 464.730542,234.646788 C465.173005,234.464866 465.610818,234.265437 466.043649,234.049014 L466.250055,233.939637 C466.250055,233.939637 466.250055,233.939637 466.250055,233.939637 C468.898307,232.46884 472.237456,233.423357 473.708252,236.071609 C473.798857,236.234748 473.881077,236.402403 473.954622,236.57391 L478.462789,247.092046 C479.891518,250.428181 478.533978,254.303116 475.334792,256.016672 C475.024865,256.182967 474.814543,256.291223 474.703827,256.341439 C469.480355,258.710601 463.857816,260 458,260 C430.386807,260 408.001693,231.348391 408,196.004009 L408.336544,66.9817412 C408.346609,63.1228896 411.477655,60 415.33652,60 Z M415,0 L425,0 C428.865993,-7.10171439e-16 432,3.13400675 432,7 L432,17 C432,20.8659932 428.865993,24 425,24 L415,24 C411.134007,24 408,20.8659932 408,17 L408,7 C408,3.13400675 411.134007,7.10171439e-16 415,0 Z" id="Shape" fill="#000000"></path>
        <path d="M526.948,7 L526.948,59.999 L526.948,59.999 L568,59.9998543 C571.865936,60.0000805 574.999854,63.1340636 575,67 L575,77 C575.000146,80.8659932 571.866139,84 568.000146,84 C568.000097,84 568.000049,84 568,83.9998543 L526.948,83.999 L526.948,83.999 L526.948,138.689 L527.003483,138.68963 L526.999,196.003967 L527.003483,196.661473 C527.233084,218.447771 538.784191,236 553,236 C555.327619,236 557.583799,235.529442 559.730542,234.646788 C560.173005,234.464866 560.610818,234.265437 561.043649,234.049014 L561.153666,233.989369 C561.153666,233.989369 561.153666,233.989369 561.153666,233.989369 C563.797517,232.474709 567.168657,233.3901 568.683316,236.033952 C568.788778,236.218036 568.883534,236.408051 568.967111,236.603048 L574.4013,249.281715 C575.279428,251.3305 574.478237,253.711986 572.540311,254.81338 L572.540311,254.81338 L572.540311,254.81338 C571.250807,255.538684 570.411027,255.99767 570.020972,256.190338 L569.703827,256.341439 C564.480355,258.710601 558.857816,260 553,260 L552.17319,259.991426 C524.941343,259.426299 503.001676,230.994947 503,196.004009 L503.202,83.999 L486,83.9997108 C482.134007,84.0001597 478.999871,80.8662825 478.999711,77.0002892 C478.999711,77.0001928 478.999711,77.0000964 479,77 L479,67 C479.000289,63.1341195 482.13412,60.0001595 486,59.9997113 L503.246,59.999 L503.246,59.999 L503.34209,6.98731175 C503.349088,3.12627899 506.481039,-1.06709546e-15 510.342078,0 L519.948,0 C523.813993,-8.70377722e-15 526.948,3.13400675 526.948,7 Z" id="Path" fill="#000000"></path>
        <path d="M86,0 C128.610574,0 164.679482,25.6010536 171.014225,60.1273051 C171.173698,60.9964795 171.319038,62.0377803 171.450245,63.2512075 C171.864212,67.0949732 169.083455,70.5462606 165.239646,70.9598309 C164.991064,70.9865768 164.741228,70.9999857 164.491211,71 L154.254883,71 C150.79142,71.0007326 147.848107,68.468532 147.331319,65.0438413 C147.003861,62.8675192 146.618078,61.1059376 146.17397,59.7590966 C139.528184,39.6045073 115.468015,24 86,24 C51.2370786,24 24,45.7160492 24,71 C24,81.4316101 29.527427,89.6290234 41.6778301,97.549094 C52.1652889,104.385198 63.2638403,109.036578 90.0737604,118.712641 C115.03413,127.721175 127.381797,132.707258 138.492219,139.275883 L139.256632,139.731469 C140.654965,140.571559 142.037701,141.439007 143.42783,142.345144 C161.802427,154.322368 172,169.44581 172,189 C172,228.88565 132.975222,260 86,260 C43.4723935,260 7.46100406,234.498546 1.0231162,200.074273 C0.851507144,199.156656 0.695658136,198.050284 0.555569179,196.755157 C0.138778184,192.911696 2.91641325,189.457896 6.7598461,189.040849 C7.01052751,189.013648 7.26249557,189.000012 7.51464844,189 L17.7568359,189 C21.2177258,189.001328 24.1581576,191.531616 24.6752185,194.953663 C25.0157503,197.205609 25.4180077,199.024148 25.8819906,200.409278 C32.6059445,220.482335 56.6140967,236 86,236 C120.762921,236 148,214.283951 148,189 C148,178.56839 142.472573,170.370977 130.32217,162.450906 C119.834711,155.614802 108.73616,150.963422 81.9262396,141.287359 C56.9658701,132.278825 44.6182031,127.292742 33.5077811,120.724117 L32.7433685,120.268531 C31.3450347,119.428441 29.9622994,118.560993 28.5721699,117.654856 C10.197573,105.677632 -2.84217094e-14,90.55419 -2.84217094e-14,71 C-2.84217094e-14,31.1143503 39.0247784,0 86,0 Z" id="Path" fill="#000000" fill-rule="nonzero"></path>
        <path d="M920.036586,243 L920.036586,253 C920.036586,256.865993 916.902579,260 913.036586,260 L819,260 C815.134007,260 812,256.865993 812,253 L812,243 C812,239.134007 815.134007,236 819,236 L913.036586,236 C916.902579,236 920.036586,239.134007 920.036586,243 Z M984.036586,179 L984.036586,189 C984.036586,192.865993 980.902579,196 977.036586,196 L819,196 C815.134007,196 812,192.865993 812,189 L812,179 C812,175.134007 815.134007,172 819,172 L977.036586,172 C980.902579,172 984.036586,175.134007 984.036586,179 Z M984.036586,115 L984.036586,125 C984.036586,128.865993 980.902579,132 977.036586,132 L819,132 C815.134007,132 812,128.865993 812,125 L812,115 C812,111.134007 815.134007,108 819,108 L977.036586,108 C980.902579,108 984.036586,111.134007 984.036586,115 Z M984.036586,51 L984.036586,61 C984.036586,64.8659932 980.902579,68 977.036586,68 L819,68 C815.134007,68 812,64.8659932 812,61 L812,51 C812,47.1340068 815.134007,44 819,44 L977.036586,44 C980.902579,44 984.036586,47.1340068 984.036586,51 Z" id="Shape-Copy" fill="#000000" fill-rule="nonzero"></path>
    </g>
</svg>