<?xml version="1.0" encoding="UTF-8"?>
<svg width="1056px" height="260px" viewBox="0 0 1056 260" version="1.1" xmlns="http://www.w3.org/2000/svg" xmlns:xlink="http://www.w3.org/1999/xlink">
    <title>logo-light</title>
    <g id="logo-light" stroke="none" stroke-width="1" fill="none" fill-rule="evenodd">
        <path d="M298,44 C348.132731,44 389.099168,89.0906572 391.852539,145.899086 C391.852539,145.899086 391.852539,145.899086 391.852539,145.899086 C392.161168,152.266812 387.249299,157.679068 380.881572,157.987697 C380.695394,157.99672 380.509025,158.001233 380.322629,158.001221 L271,158.000073 C267.134035,157.999959 264.000073,154.865965 264,151 L264,141 C263.999997,137.134007 267.134004,134 270.999997,134 C270.999998,134 270.999999,134 271,134.000003 L366.389111,134.000046 L366.389111,134.000046 C359.522423,96.2578388 331.5112,68 298,68 C259.340068,68 228,105.608081 228,152 C228,198.391919 259.340068,236 298,236 C307.732451,236 317.001,233.616564 325.422419,229.30957 C325.716458,229.159188 326.03384,228.990476 326.374565,228.803433 C329.763929,226.943833 334.018898,228.184494 335.878066,231.574095 C335.942571,231.691699 336.003682,231.811132 336.060339,231.932715 L340.336906,240.914216 C341.933581,244.268852 340.630798,248.286298 337.368265,250.063611 C336.251178,250.673596 335.287065,251.174957 334.475927,251.567693 C323.260149,256.998146 310.935192,260 298,260 C246.085234,260 204,211.646753 204,152 C204,92.353247 246.085234,44 298,44 Z" id="Path" fill="#000000"></path>
        <path d="M718,44 C768.132731,44 809.099168,89.0906572 811.852539,145.899086 C811.852539,145.899086 811.852539,145.899086 811.852539,145.899086 C812.161168,152.266812 807.249299,157.679068 800.881572,157.987697 C800.695394,157.99672 800.509025,158.001233 800.322629,158.001221 L691,158.000073 C687.134035,157.999959 684.000073,154.865965 684,151 L684,141 C683.999997,137.134007 687.134004,134 690.999997,134 C690.999998,134 690.999999,134 691,134.000003 L786.389111,134.000046 L786.389111,134.000046 C779.522423,96.2578388 751.5112,68 718,68 C679.340068,68 648,105.608081 648,152 C648,198.391919 679.340068,236 718,236 C727.732451,236 737.001,233.616564 745.422419,229.30957 C745.716458,229.159188 746.03384,228.990476 746.374565,228.803433 C749.763929,226.943833 754.018898,228.184494 755.878066,231.574095 C755.942571,231.691699 756.003682,231.811132 756.060339,231.932715 L760.336906,240.914216 C761.933581,244.268852 760.630798,248.286298 757.368265,250.063611 C756.251178,250.673596 755.287065,251.174957 754.475927,251.567693 C743.260149,256.998146 730.935192,260 718,260 C666.085234,260 624,211.646753 624,152 C624,92.353247 666.085234,44 718,44 Z" id="Path-Copy" fill="#000000"></path>
        <path d="M431.33652,60 L440.948,60 C444.813993,60 447.948,63.1340068 447.948,67 L447.948,138.689 L447.948,138.689 L448.003483,138.68963 L447.999,196.003967 L448.003483,196.661473 C448.233084,218.447771 459.784191,236 474,236 C476.327619,236 478.583799,235.529442 480.730542,234.646788 C481.173005,234.464866 481.610818,234.265437 482.043649,234.049014 L482.250055,233.939637 C482.250055,233.939637 482.250055,233.939637 482.250055,233.939637 C484.898307,232.46884 488.237456,233.423357 489.708252,236.071609 C489.798857,236.234748 489.881077,236.402403 489.954622,236.57391 L494.462789,247.092046 C495.891518,250.428181 494.533978,254.303116 491.334792,256.016672 C491.024865,256.182967 490.814543,256.291223 490.703827,256.341439 C485.480355,258.710601 479.857816,260 474,260 C446.386807,260 424.001693,231.348391 424,196.004009 L424.336544,66.9817412 C424.346609,63.1228896 427.477655,60 431.33652,60 Z M431,0 L441,0 C444.865993,-7.10171439e-16 448,3.13400675 448,7 L448,17 C448,20.8659932 444.865993,24 441,24 L431,24 C427.134007,24 424,20.8659932 424,17 L424,7 C424,3.13400675 427.134007,7.10171439e-16 431,0 Z" id="Shape" fill="#000000"></path>
        <path d="M558.948,7 L558.948,59.999 L558.948,59.999 L600,59.9998543 C603.865936,60.0000805 606.999854,63.1340636 607,67 L607,77 C607.000146,80.8659932 603.866139,84 600.000146,84 C600.000097,84 600.000049,84 600,83.9998543 L558.948,83.999 L558.948,83.999 L558.948,138.689 L559.003483,138.68963 L558.999,196.003967 L559.003483,196.661473 C559.233084,218.447771 570.784191,236 585,236 C587.327619,236 589.583799,235.529442 591.730542,234.646788 C592.173005,234.464866 592.610818,234.265437 593.043649,234.049014 L593.153666,233.989369 C593.153666,233.989369 593.153666,233.989369 593.153666,233.989369 C595.797517,232.474709 599.168657,233.3901 600.683316,236.033952 C600.788778,236.218036 600.883534,236.408051 600.967111,236.603048 L606.4013,249.281715 C607.279428,251.3305 606.478237,253.711986 604.540311,254.81338 L604.540311,254.81338 L604.540311,254.81338 C603.250807,255.538684 602.411027,255.99767 602.020972,256.190338 L601.703827,256.341439 C596.480355,258.710601 590.857816,260 585,260 L584.17319,259.991426 C556.941343,259.426299 535.001676,230.994947 535,196.004009 L535.202,83.999 L518,83.9997108 C514.134007,84.0001597 510.999871,80.8662825 510.999711,77.0002892 C510.999711,77.0001928 510.999711,77.0000964 511,77 L511,67 C511.000289,63.1341195 514.13412,60.0001595 518,59.9997113 L535.246,59.999 L535.246,59.999 L535.34209,6.98731175 C535.349088,3.12627899 538.481039,-1.06709546e-15 542.342078,0 L551.948,0 C555.813993,-8.70377722e-15 558.948,3.13400675 558.948,7 Z" id="Path" fill="#000000"></path>
        <path d="M86,0 C128.610574,0 164.679482,25.6010536 171.014225,60.1273051 C171.173698,60.9964795 171.319038,62.0377803 171.450245,63.2512075 C171.864212,67.0949732 169.083455,70.5462606 165.239646,70.9598309 C164.991064,70.9865768 164.741228,70.9999857 164.491211,71 L154.254883,71 C150.79142,71.0007326 147.848107,68.468532 147.331319,65.0438413 C147.003861,62.8675192 146.618078,61.1059376 146.17397,59.7590966 C139.528184,39.6045073 115.468015,24 86,24 C51.2370786,24 24,45.7160492 24,71 C24,81.4316101 29.527427,89.6290234 41.6778301,97.549094 C52.1652889,104.385198 63.2638403,109.036578 90.0737604,118.712641 C115.03413,127.721175 127.381797,132.707258 138.492219,139.275883 L139.256632,139.731469 C140.654965,140.571559 142.037701,141.439007 143.42783,142.345144 C161.802427,154.322368 172,169.44581 172,189 C172,228.88565 132.975222,260 86,260 C43.4723935,260 7.46100406,234.498546 1.0231162,200.074273 C0.851507144,199.156656 0.695658136,198.050284 0.555569179,196.755157 C0.138778184,192.911696 2.91641325,189.457896 6.7598461,189.040849 C7.01052751,189.013648 7.26249557,189.000012 7.51464844,189 L17.7568359,189 C21.2177258,189.001328 24.1581576,191.531616 24.6752185,194.953663 C25.0157503,197.205609 25.4180077,199.024148 25.8819906,200.409278 C32.6059445,220.482335 56.6140967,236 86,236 C120.762921,236 148,214.283951 148,189 C148,178.56839 142.472573,170.370977 130.32217,162.450906 C119.834711,155.614802 108.73616,150.963422 81.9262396,141.287359 C56.9658701,132.278825 44.6182031,127.292742 33.5077811,120.724117 L32.7433685,120.268531 C31.3450347,119.428441 29.9622994,118.560993 28.5721699,117.654856 C10.197573,105.677632 -2.84217094e-14,90.55419 -2.84217094e-14,71 C-2.84217094e-14,31.1143503 39.0247784,0 86,0 Z" id="Path" fill="#000000" fill-rule="nonzero"></path>
        <path d="M992.036586,243 L992.036586,253 C992.036586,256.865993 988.902579,260 985.036586,260 L891,260 C887.134007,260 884,256.865993 884,253 L884,243 C884,239.134007 887.134007,236 891,236 L985.036586,236 C988.902579,236 992.036586,239.134007 992.036586,243 Z M1056.03659,179 L1056.03659,189 C1056.03659,192.865993 1052.90258,196 1049.03659,196 L891,196 C887.134007,196 884,192.865993 884,189 L884,179 C884,175.134007 887.134007,172 891,172 L1049.03659,172 C1052.90258,172 1056.03659,175.134007 1056.03659,179 Z M1056.03659,115 L1056.03659,125 C1056.03659,128.865993 1052.90258,132 1049.03659,132 L891,132 C887.134007,132 884,128.865993 884,125 L884,115 C884,111.134007 887.134007,108 891,108 L1049.03659,108 C1052.90258,108 1056.03659,111.134007 1056.03659,115 Z M1056.03659,51 L1056.03659,61 C1056.03659,64.8659932 1052.90258,68 1049.03659,68 L891,68 C887.134007,68 884,64.8659932 884,61 L884,51 C884,47.1340068 887.134007,44 891,44 L1049.03659,44 C1052.90258,44 1056.03659,47.1340068 1056.03659,51 Z" id="Shape-Copy" fill="#000000" fill-rule="nonzero"></path>
    </g>
</svg>